<?xml version="1.0" encoding="UTF-8" standalone="no"?>
<!-- Created with Vectornator (http://vectornator.io/) -->

<svg
   height="100%"
   stroke-miterlimit="10"
   style="fill-rule:nonzero;clip-rule:evenodd;stroke-linecap:round;stroke-linejoin:round;"
   version="1.1"
   viewBox="0 0 2250 1002.7"
   width="100%"
   xml:space="preserve"
   id="svg100"
   sodipodi:docname="MainTitle1-Inverted.svg"
   xmlns:inkscape="http://www.inkscape.org/namespaces/inkscape"
   xmlns:sodipodi="http://sodipodi.sourceforge.net/DTD/sodipodi-0.dtd"
   xmlns="http://www.w3.org/2000/svg"
   xmlns:svg="http://www.w3.org/2000/svg"
   xmlns:vectornator="http://vectornator.io"><sodipodi:namedview
   id="namedview102"
   pagecolor="#ffffff"
   bordercolor="#666666"
   borderopacity="1.0"
   inkscape:pageshadow="2"
   inkscape:pageopacity="0.0"
   inkscape:pagecheckerboard="0" />
<defs
   id="defs5">
<clipPath
   id="TextBounds">
<rect
   height="249.081"
   width="1222.06"
   x="959.223"
   y="571.394"
   id="rect2" />
</clipPath>
</defs>
<g
   id="Layer-1"
   vectornator:layerName="Layer 1">
<path
   d="M212.874 501.348C212.874 325.1 355.751 182.222 532 182.222C708.249 182.222 851.126 325.1 851.126 501.348C851.126 677.597 708.249 820.475 532 820.475C355.751 820.475 212.874 677.597 212.874 501.348Z"
   fill="#ffffff"
   fill-rule="nonzero"
   opacity="1"
   stroke="none"
   id="path7" />
<path
   d="M731.665 501.348L771.872 501.348C771.872 468.587 765.603 437.746 753.062 408.824C740.522 379.903 723.2 354.392 701.098 332.289C678.996 310.187 653.484 292.866 624.563 280.326C595.642 267.785 564.801 261.516 532.04 261.516C496.3 261.516 462.793 269.078 431.521 284.205C400.249 299.332 373.561 319.592 351.46 344.986C346.914 350.003 344.876 355.293 345.346 360.858C345.816 366.423 348.403 370.85 353.105 374.143C357.651 377.435 362.511 378.649 367.683 377.787C372.856 376.925 377.324 374.3 381.086 369.911C399.426 348.905 421.646 332.251 447.745 319.945C473.844 307.64 501.942 301.488 532.04 301.488C559.785 301.488 585.727 306.66 609.867 317.006C634.007 327.352 655.209 341.655 673.47 359.917C691.732 378.179 705.996 399.419 716.264 423.638C726.532 447.856 731.665 473.76 731.665 501.348ZM532.04 741.181C567.936 741.181 601.521 733.618 632.793 718.491C664.065 703.364 690.752 683.104 712.855 657.71C717.244 652.693 719.203 647.363 718.733 641.721C718.262 636.078 715.755 631.61 711.208 628.318C706.663 625.027 701.804 623.851 696.63 624.792C691.458 625.732 686.99 628.397 683.228 632.786C665.045 653.791 642.903 670.446 616.804 682.751C590.704 695.056 562.45 701.208 532.04 701.208C504.294 701.208 478.351 696.075 454.211 685.808C430.071 675.541 408.871 661.276 390.609 643.014C372.347 624.752 358.082 603.512 347.815 579.294C337.548 555.075 332.413 529.093 332.413 501.348L292.206 501.348C292.206 534.11 298.477 564.99 311.017 593.989C323.557 622.988 340.878 648.501 362.981 670.524C385.083 692.548 410.595 709.83 439.516 722.37C468.436 734.911 499.278 741.181 532.04 741.181ZM261.169 526.507L369.094 526.507C377.402 526.507 382.614 524.077 384.731 519.218C386.846 514.359 385.632 508.715 381.086 502.289L328.417 427.282C324.655 421.952 320.266 419.249 315.249 419.17C310.233 419.092 305.766 421.796 301.847 427.282L249.178 502.053C244.632 508.48 243.378 514.162 245.415 519.1C247.454 524.038 252.704 526.507 261.169 526.507ZM802.675 476.424L694.985 476.424C686.677 476.424 681.465 478.854 679.349 483.714C677.232 488.573 678.447 494.216 682.993 500.642L735.663 575.649C739.424 580.979 743.813 583.683 748.83 583.761C753.845 583.839 758.313 581.136 762.232 575.649L814.666 500.878C819.368 494.294 820.662 488.573 818.545 483.714C816.43 478.854 811.139 476.424 802.675 476.424Z"
   fill="#000000"
   fill-rule="nonzero"
   opacity="1"
   stroke="none"
   id="path9" />
<path
   d="M606.143 492.835L587.687 492.835C584.571 492.835 581.71 494.538 580.212 497.271L562.615 529.502L561.159 529.502L531.559 473.459C544.831 467.662 552.229 454.049 552.229 439.185C552.229 414.147 535.253 399.189 506.938 399.189L462.108 399.189C457.408 399.189 453.594 403.003 453.594 407.703L453.594 509.862C453.594 514.561 457.408 518.375 462.108 518.375L475.916 518.375C480.615 518.375 484.429 514.561 484.429 509.862L484.429 477.997L502.673 477.997L542.37 547.678L512.327 597.046C510.608 599.872 512.651 603.507 515.971 603.507L533.508 603.507C536.488 603.507 539.255 601.95 540.796 599.396L559.482 568.458L560.938 568.458L579.471 599.37C581.004 601.941 583.779 603.507 586.767 603.507L605.896 603.507C609.251 603.507 611.285 599.813 609.497 596.978L578.569 547.976L609.727 499.382C611.541 496.555 609.506 492.835 606.143 492.835ZM484.429 456.237L484.429 422.465L502.58 422.465C513.587 422.465 520.73 429.105 520.73 439.432C520.73 449.937 514.013 456.237 502.665 456.237L484.429 456.237Z"
   fill="#000000"
   fill-rule="nonzero"
   opacity="1"
   stroke="none"
   id="path11" />
</g>
<g
   id="Layer-2"
   vectornator:layerName="Layer 2">
<path
   d="M1766.75 489.213C1775.24 489.213 1780.34 484.062 1780.34 475.478L1780.34 393.926L1805.38 393.926C1872.43 393.926 1910.2 357.013 1910.2 291.343C1910.2 225.673 1872.43 188.76 1805.38 188.76L1726.01 188.76C1717.52 188.76 1712.43 193.91 1712.43 202.495L1712.43 475.478C1712.43 484.062 1717.52 489.213 1726.01 489.213L1766.75 489.213ZM1780.34 253.143L1801.56 253.143C1827.87 253.143 1842.3 265.59 1842.3 291.343C1842.3 317.096 1827.87 329.543 1801.56 329.543L1780.34 329.543L1780.34 253.143Z"
   fill="#ffffff"
   fill-rule="nonzero"
   opacity="1"
   stroke="none"
   id="path14" />
<path
   d="M1613.12 200.349C1611 192.623 1606.33 188.76 1598.27 188.76L1542.24 188.76C1534.18 188.76 1529.51 192.623 1527.39 200.349L1457.36 473.761C1454.82 483.203 1459.91 489.213 1469.25 489.213L1506.59 489.213C1514.66 489.213 1520.18 484.92 1521.87 477.194L1531.63 436.848L1608.88 436.848L1618.64 477.194C1620.34 484.92 1625.85 489.213 1633.92 489.213L1671.26 489.213C1680.6 489.213 1685.69 483.203 1683.15 473.761L1613.12 200.349ZM1568.56 283.617L1571.95 283.617L1593.17 371.607L1547.34 371.607L1568.56 283.617Z"
   fill="#ffffff"
   fill-rule="nonzero"
   opacity="1"
   stroke="none"
   id="path16" />
<path
   d="M1268.93 489.642C1276.99 489.642 1282.08 485.35 1283.36 477.194L1313.91 309.799L1315.61 309.799L1345.75 477.194C1347.02 485.35 1352.11 489.642 1360.17 489.642L1400.49 489.642C1408.56 489.642 1414.07 485.779 1415.35 477.194L1458.64 203.782C1459.91 194.769 1455.67 189.189 1446.33 189.189L1406.01 189.189C1397.52 189.189 1392.85 193.91 1391.58 202.066L1370.79 364.31L1369.09 364.31L1344.9 201.636C1343.62 193.481 1338.53 189.189 1330.47 189.189L1301.18 189.189C1293.12 189.189 1288.03 193.481 1286.75 201.636L1262.14 364.31L1260.44 364.31L1237.52 202.066C1236.25 193.91 1231.16 189.189 1223.09 189.189L1182.77 189.189C1173.44 189.189 1169.19 194.769 1170.47 203.782L1214.18 477.194C1215.45 485.779 1220.97 489.642 1229.03 489.642L1268.93 489.642Z"
   fill="#ffffff"
   fill-rule="nonzero"
   opacity="1"
   stroke="none"
   id="path18" />
<path
   d="M1054.6 495.222C1115.29 495.222 1155.19 456.163 1155.19 398.647C1155.19 350.575 1131 326.11 1075.82 310.229L1056.3 304.649C1032.53 297.781 1026.59 287.909 1026.59 270.311C1026.59 255.718 1037.63 247.133 1055.03 247.133C1072 247.133 1081.77 254.43 1085.16 270.74C1086.86 279.325 1090.68 284.046 1099.17 284.046L1135.66 284.046C1144.58 284.046 1149.67 278.896 1148.82 269.882C1142.88 212.367 1110.62 182.751 1054.6 182.751C997.309 182.751 958.688 220.951 958.688 276.32C958.688 323.534 984.577 350.575 1036.35 364.31L1057.15 369.89C1079.64 375.899 1087.28 385.342 1087.28 403.369C1087.28 421.396 1075.4 430.839 1055.03 430.839C1035.93 430.839 1023.62 417.962 1019.38 399.935C1017.26 391.351 1013.01 387.917 1004.95 387.917L967.6 387.917C958.688 387.917 953.595 393.068 954.444 402.081C960.81 461.743 996.884 495.222 1054.6 495.222Z"
   fill="#ffffff"
   fill-rule="nonzero"
   opacity="1"
   stroke="none"
   id="path20" />
<path
   d="M963.251 521.098L1901.3 521.098C1906.22 521.098 1910.2 525.082 1910.2 529.997L1910.2 540.198C1910.2 545.113 1906.22 549.098 1901.3 549.098L963.251 549.098C958.337 549.098 954.352 545.113 954.352 540.198L954.352 529.997C954.352 525.082 958.337 521.098 963.251 521.098Z"
   fill="#ffffff"
   fill-rule="nonzero"
   opacity="1"
   stroke="none"
   id="path22" />
</g>
<g
   id="Layer-3"
   vectornator:layerName="Layer 3">
<g
   fill="#ffffff"
   opacity="1"
   stroke="none"
   id="g97">
<path
   clip-path="url(#TextBounds)"
   d="M986.895 671.162C1000.97 671.162 1010.21 662.209 1010.21 649.024C1010.21 638.005 1004.61 632.396 991.815 628.756L987.289 627.477C981.779 625.902 980.401 623.639 980.401 619.605C980.401 616.26 982.96 614.292 986.994 614.292C990.929 614.292 993.192 615.965 993.979 619.704C994.373 621.672 995.258 622.754 997.226 622.754L1005.69 622.754C1007.75 622.754 1008.93 621.573 1008.74 619.507C1007.36 606.323 999.883 599.534 986.895 599.534C973.612 599.534 964.659 608.29 964.659 620.983C964.659 631.806 970.661 638.005 982.664 641.153L987.486 642.432C992.7 643.81 994.471 645.974 994.471 650.107C994.471 654.239 991.716 656.404 986.994 656.404C982.566 656.404 979.713 653.452 978.729 649.32C978.237 647.352 977.253 646.565 975.383 646.565L966.725 646.565C964.659 646.565 963.478 647.745 963.675 649.811C965.151 663.488 973.514 671.162 986.895 671.162Z"
   id="path25" />
<path
   clip-path="url(#TextBounds)"
   d="M1030.78 669.785C1032.75 669.785 1033.93 668.604 1033.93 666.636L1033.93 642.727C1033.93 638.201 1036.39 635.25 1040.32 635.25C1043.96 635.25 1046.03 637.906 1046.03 642.432L1046.03 666.636C1046.03 668.604 1047.21 669.785 1049.18 669.785L1058.62 669.785C1060.59 669.785 1061.77 668.604 1061.77 666.636L1061.77 637.513C1061.77 626.394 1056.06 619.212 1046.91 619.212C1042.09 619.212 1037.37 622.164 1034.22 626.198L1033.93 626.198L1033.93 604.06C1033.93 602.092 1032.75 600.911 1030.78 600.911L1021.33 600.911C1019.36 600.911 1018.18 602.092 1018.18 604.06L1018.18 666.636C1018.18 668.604 1019.36 669.785 1021.33 669.785L1030.78 669.785Z"
   id="path27" />
<path
   clip-path="url(#TextBounds)"
   d="M1090.4 671.162C1104.18 671.162 1112.25 662.897 1112.25 648.926L1112.25 640.956C1112.25 627.969 1103.49 619.31 1090.4 619.212C1077.22 619.31 1068.56 627.969 1068.56 640.956L1068.56 648.926C1068.56 662.897 1076.53 671.162 1090.4 671.162ZM1090.4 658.47C1086.76 658.47 1084.5 655.715 1084.5 651.484L1084.5 638.792C1084.5 634.167 1086.76 631.806 1090.6 631.806C1094.04 631.806 1096.31 634.266 1096.31 638.792L1096.31 651.484C1096.31 655.715 1094.04 658.47 1090.4 658.47Z"
   id="path29" />
<path
   clip-path="url(#TextBounds)"
   d="M1132.42 669.785C1134.38 669.785 1135.56 668.604 1135.56 666.636L1135.56 648.926C1135.56 642.826 1139.89 638.595 1146.19 637.513C1148.16 637.217 1149.24 636.332 1149.24 634.266L1149.34 623.836C1149.34 621.672 1148.16 620.491 1145.99 620.884C1141.66 621.573 1138.52 623.639 1135.96 626.296L1135.56 626.296L1135.56 623.738C1135.56 621.77 1134.38 620.589 1132.42 620.589L1122.97 620.589C1121 620.589 1119.82 621.77 1119.82 623.738L1119.82 666.636C1119.82 668.604 1121 669.785 1122.97 669.785L1132.42 669.785Z"
   id="path31" />
<path
   clip-path="url(#TextBounds)"
   d="M1183.68 670.867C1185.65 670.572 1186.63 669.293 1186.63 667.423L1186.63 660.143C1186.63 658.076 1185.45 657.092 1183.28 657.092C1178.76 657.191 1176 656.01 1176 651.484L1176 634.758L1183.48 634.758C1185.45 634.758 1186.63 633.577 1186.63 631.609L1186.63 623.738C1186.63 621.77 1185.45 620.589 1183.48 620.589L1176 620.589L1176 610.455C1176 608.487 1174.82 607.307 1172.85 607.307L1163.41 607.307C1161.44 607.307 1160.26 608.487 1160.26 610.455L1160.26 620.589L1155.54 620.589C1153.57 620.589 1152.39 621.77 1152.39 623.738L1152.39 631.609C1152.39 633.577 1153.57 634.758 1155.54 634.758L1159.87 634.758L1159.87 655.518C1159.87 661.618 1161.64 665.652 1164.98 668.211C1169.02 671.261 1175.41 671.949 1183.68 670.867Z"
   id="path33" />
<path
   clip-path="url(#TextBounds)"
   d="M1210.14 670.966C1214.47 670.966 1218.41 669.391 1221.56 666.833L1221.75 666.833L1221.75 667.128C1221.75 668.801 1223.03 669.785 1224.9 669.785L1234.25 669.785C1236.22 669.785 1237.4 668.604 1237.4 666.636L1237.4 623.639C1237.4 621.672 1236.22 620.491 1234.25 620.491L1224.9 620.491C1223.03 620.491 1221.75 621.376 1221.75 622.852L1221.75 623.147L1221.46 623.147C1218.41 620.589 1214.47 619.015 1210.14 619.015C1200.5 619.015 1192.63 626.985 1192.63 636.725L1192.63 653.354C1192.63 663.094 1200.5 670.966 1210.14 670.966ZM1214.47 658.568C1210.54 658.568 1207.29 655.321 1207.29 651.386L1207.29 639.087C1207.29 635.053 1210.54 631.806 1214.47 631.806C1218.51 631.806 1221.75 635.053 1221.75 639.087L1221.75 651.386C1221.75 655.321 1218.51 658.568 1214.47 658.568Z"
   id="path35" />
<path
   clip-path="url(#TextBounds)"
   d="M1267.6 690.841C1281.08 690.841 1290.43 681.887 1290.43 669.785L1290.43 623.541C1290.43 621.573 1289.25 620.393 1287.28 620.393L1277.84 620.393C1275.97 620.393 1274.69 621.278 1274.69 622.852L1274.69 623.147L1274.2 623.147C1271.15 620.688 1267.31 619.212 1263.08 619.212C1253.34 619.212 1245.47 627.182 1245.47 636.922L1245.47 652.173C1245.47 661.914 1253.34 669.785 1263.08 669.785C1267.31 669.785 1271.25 668.309 1274.3 665.849L1274.69 665.849L1274.69 671.162C1274.69 675.787 1272.43 678.542 1267.9 678.64C1265.64 678.738 1263.87 678.05 1262.69 676.967C1261.41 675.688 1260.62 675 1258.85 675.196L1250.68 676.279C1248.62 676.574 1247.43 677.951 1248.12 679.919C1250.48 685.921 1257.96 690.841 1267.6 690.841ZM1267.41 657.388C1263.47 657.388 1260.23 654.141 1260.23 650.205L1260.23 639.284C1260.23 635.25 1263.47 632.003 1267.41 632.003C1271.44 632.003 1274.69 635.25 1274.69 639.284L1274.69 650.205C1274.69 654.141 1271.44 657.388 1267.41 657.388Z"
   id="path37" />
<path
   clip-path="url(#TextBounds)"
   d="M1319.75 671.162C1332.05 671.162 1340.12 666.833 1341.4 657.191C1341.69 655.321 1340.41 654.337 1338.35 654.337L1328.31 654.337C1326.54 654.337 1326.05 655.321 1324.87 656.797C1323.88 658.076 1321.92 658.47 1320.15 658.47C1316.51 658.47 1313.85 656.305 1313.85 652.074L1313.85 649.516L1338.35 649.516C1340.32 649.516 1341.5 648.336 1341.5 646.368L1341.5 638.89C1341.4 626.69 1332.44 619.31 1319.75 619.212C1306.57 619.113 1297.91 627.969 1297.91 640.956L1297.91 648.926C1297.91 662.897 1305.88 671.162 1319.75 671.162ZM1313.85 638.89C1313.85 634.167 1316.11 631.806 1319.95 631.806C1323.39 631.806 1325.66 634.266 1325.66 638.89L1313.85 638.89Z"
   id="path39" />
<path
   clip-path="url(#TextBounds)"
   d="M1388.92 669.883C1390.79 669.883 1391.97 668.899 1392.27 667.03L1399.35 628.657L1399.74 628.657L1406.73 667.03C1407.03 668.899 1408.21 669.883 1410.08 669.883L1419.42 669.883C1421.29 669.883 1422.57 668.998 1422.87 667.03L1432.9 604.355C1433.2 602.289 1432.21 601.009 1430.05 601.009L1420.7 601.009C1418.73 601.009 1417.65 602.092 1417.36 603.961L1412.54 641.153L1412.14 641.153L1406.53 603.863C1406.24 601.993 1405.06 601.009 1403.19 601.009L1396.4 601.009C1394.53 601.009 1393.35 601.993 1393.05 603.863L1387.35 641.153L1386.95 641.153L1381.64 603.961C1381.35 602.092 1380.16 601.009 1378.29 601.009L1368.95 601.009C1366.78 601.009 1365.8 602.289 1366.09 604.355L1376.23 667.03C1376.52 668.998 1377.8 669.883 1379.67 669.883L1388.92 669.883Z"
   id="path41" />
<path
   clip-path="url(#TextBounds)"
   d="M1449.33 670.966C1453.66 670.966 1457.6 669.391 1460.75 666.833L1460.94 666.833L1460.94 667.128C1460.94 668.801 1462.22 669.785 1464.09 669.785L1473.44 669.785C1475.41 669.785 1476.59 668.604 1476.59 666.636L1476.59 623.639C1476.59 621.672 1475.41 620.491 1473.44 620.491L1464.09 620.491C1462.22 620.491 1460.94 621.376 1460.94 622.852L1460.94 623.147L1460.65 623.147C1457.6 620.589 1453.66 619.015 1449.33 619.015C1439.69 619.015 1431.82 626.985 1431.82 636.725L1431.82 653.354C1431.82 663.094 1439.69 670.966 1449.33 670.966ZM1453.66 658.568C1449.73 658.568 1446.48 655.321 1446.48 651.386L1446.48 639.087C1446.48 635.053 1449.73 631.806 1453.66 631.806C1457.7 631.806 1460.94 635.053 1460.94 639.087L1460.94 651.386C1460.94 655.321 1457.7 658.568 1453.66 658.568Z"
   id="path43" />
<path
   clip-path="url(#TextBounds)"
   d="M1499.32 669.785C1501.28 669.785 1502.46 668.604 1502.46 666.636L1502.46 648.926C1502.46 642.826 1506.79 638.595 1513.09 637.513C1515.06 637.217 1516.14 636.332 1516.14 634.266L1516.24 623.836C1516.24 621.672 1515.06 620.491 1512.89 620.884C1508.56 621.573 1505.42 623.639 1502.86 626.296L1502.46 626.296L1502.46 623.738C1502.46 621.77 1501.28 620.589 1499.32 620.589L1489.87 620.589C1487.9 620.589 1486.72 621.77 1486.72 623.738L1486.72 666.636C1486.72 668.604 1487.9 669.785 1489.87 669.785L1499.32 669.785Z"
   id="path45" />
<path
   clip-path="url(#TextBounds)"
   d="M1534.93 669.785C1536.9 669.785 1538.08 668.604 1538.08 666.636L1538.08 642.235C1538.08 637.709 1540.35 634.856 1543.99 634.856C1547.43 634.856 1549.4 637.414 1549.4 641.94L1549.4 666.636C1549.4 668.604 1550.58 669.785 1552.55 669.785L1561.99 669.785C1563.96 669.785 1565.14 668.604 1565.14 666.636L1565.14 637.119C1565.14 626.198 1559.63 619.212 1550.48 619.212C1545.85 619.212 1541.43 621.278 1538.38 625.017L1537.98 625.017L1537.98 623.738C1537.98 621.77 1536.8 620.589 1534.84 620.589L1525.49 620.589C1523.52 620.589 1522.34 621.77 1522.34 623.738L1522.34 666.636C1522.34 668.604 1523.52 669.785 1525.49 669.785L1534.93 669.785Z"
   id="path47" />
<path
   clip-path="url(#TextBounds)"
   d="M1582.55 614.292C1586.79 614.292 1590.33 610.849 1590.33 606.716C1590.33 602.584 1586.79 598.943 1582.55 598.943C1578.13 598.943 1574.78 602.387 1574.78 606.716C1574.78 610.947 1578.23 614.292 1582.55 614.292ZM1587.28 669.785C1589.25 669.785 1590.43 668.604 1590.43 666.636L1590.43 623.738C1590.43 621.77 1589.25 620.589 1587.28 620.589L1577.83 620.589C1575.86 620.589 1574.68 621.77 1574.68 623.738L1574.68 666.636C1574.68 668.604 1575.86 669.785 1577.83 669.785L1587.28 669.785Z"
   id="path49" />
<path
   clip-path="url(#TextBounds)"
   d="M1612.76 669.785C1614.73 669.785 1615.91 668.604 1615.91 666.636L1615.91 642.235C1615.91 637.709 1618.17 634.856 1621.81 634.856C1625.26 634.856 1627.22 637.414 1627.22 641.94L1627.22 666.636C1627.22 668.604 1628.41 669.785 1630.37 669.785L1639.82 669.785C1641.79 669.785 1642.97 668.604 1642.97 666.636L1642.97 637.119C1642.97 626.198 1637.46 619.212 1628.31 619.212C1623.68 619.212 1619.25 621.278 1616.2 625.017L1615.81 625.017L1615.81 623.738C1615.81 621.77 1614.63 620.589 1612.66 620.589L1603.32 620.589C1601.35 620.589 1600.17 621.77 1600.17 623.738L1600.17 666.636C1600.17 668.604 1601.35 669.785 1603.32 669.785L1612.76 669.785Z"
   id="path51" />
<path
   clip-path="url(#TextBounds)"
   d="M1672.39 690.841C1685.87 690.841 1695.21 681.887 1695.21 669.785L1695.21 623.541C1695.21 621.573 1694.03 620.393 1692.06 620.393L1682.62 620.393C1680.75 620.393 1679.47 621.278 1679.47 622.852L1679.47 623.147L1678.98 623.147C1675.93 620.688 1672.09 619.212 1667.86 619.212C1658.12 619.212 1650.25 627.182 1650.25 636.922L1650.25 652.173C1650.25 661.914 1658.12 669.785 1667.86 669.785C1672.09 669.785 1676.03 668.309 1679.08 665.849L1679.47 665.849L1679.47 671.162C1679.47 675.787 1677.21 678.542 1672.68 678.64C1670.42 678.738 1668.65 678.05 1667.47 676.967C1666.19 675.688 1665.4 675 1663.63 675.196L1655.46 676.279C1653.4 676.574 1652.22 677.951 1652.9 679.919C1655.27 685.921 1662.74 690.841 1672.39 690.841ZM1672.19 657.388C1668.25 657.388 1665.01 654.141 1665.01 650.205L1665.01 639.284C1665.01 635.25 1668.25 632.003 1672.19 632.003C1676.22 632.003 1679.47 635.25 1679.47 639.284L1679.47 650.205C1679.47 654.141 1676.22 657.388 1672.19 657.388Z"
   id="path53" />
<path
   clip-path="url(#TextBounds)"
   d="M1758.48 603.568C1757.99 601.797 1756.9 600.911 1755.03 600.911L1742.05 600.911C1740.18 600.911 1739.1 601.797 1738.6 603.568L1722.37 666.243C1721.78 668.407 1722.96 669.785 1725.12 669.785L1733.78 669.785C1735.65 669.785 1736.93 668.801 1737.32 667.03L1739.59 657.781L1757.49 657.781L1759.76 667.03C1760.15 668.801 1761.43 669.785 1763.3 669.785L1771.96 669.785C1774.12 669.785 1775.3 668.407 1774.71 666.243L1758.48 603.568ZM1748.15 622.656L1748.93 622.656L1753.85 642.826L1743.23 642.826L1748.15 622.656Z"
   id="path55" />
<path
   clip-path="url(#TextBounds)"
   d="M1793.6 689.66C1795.57 689.66 1796.75 688.479 1796.75 686.511L1796.75 667.423L1797.24 667.423C1800.29 669.883 1804.13 671.359 1808.36 671.359C1818.1 671.359 1825.97 663.389 1825.97 653.649L1825.97 637.021C1825.97 627.28 1818.1 619.409 1808.36 619.409C1804.13 619.409 1800.2 620.884 1797.15 623.344L1796.75 623.344L1796.75 623.049C1796.75 621.475 1795.47 620.589 1793.6 620.589L1784.16 620.589C1782.19 620.589 1781.01 621.77 1781.01 623.738L1781.01 686.511C1781.01 688.479 1782.19 689.66 1784.16 689.66L1793.6 689.66ZM1804.03 658.568C1800 658.568 1796.75 655.321 1796.75 651.287L1796.75 638.988C1796.75 635.053 1800 631.806 1804.03 631.806C1807.97 631.806 1811.22 635.053 1811.22 638.988L1811.22 651.287C1811.22 655.321 1807.97 658.568 1804.03 658.568Z"
   id="path57" />
<path
   clip-path="url(#TextBounds)"
   d="M1846.14 689.66C1848.11 689.66 1849.29 688.479 1849.29 686.511L1849.29 667.423L1849.78 667.423C1852.84 669.883 1856.67 671.359 1860.9 671.359C1870.64 671.359 1878.52 663.389 1878.52 653.649L1878.52 637.021C1878.52 627.28 1870.64 619.409 1860.9 619.409C1856.67 619.409 1852.74 620.884 1849.69 623.344L1849.29 623.344L1849.29 623.049C1849.29 621.475 1848.01 620.589 1846.14 620.589L1836.7 620.589C1834.73 620.589 1833.55 621.77 1833.55 623.738L1833.55 686.511C1833.55 688.479 1834.73 689.66 1836.7 689.66L1846.14 689.66ZM1856.57 658.568C1852.54 658.568 1849.29 655.321 1849.29 651.287L1849.29 638.988C1849.29 635.053 1852.54 631.806 1856.57 631.806C1860.51 631.806 1863.76 635.053 1863.76 638.988L1863.76 651.287C1863.76 655.321 1860.51 658.568 1856.57 658.568Z"
   id="path59" />
<path
   clip-path="url(#TextBounds)"
   d="M980.401 789.33C982.369 789.33 983.55 788.149 983.55 786.182L983.55 754.204L990.241 754.204C992.208 754.204 993.389 753.024 993.389 751.056L993.389 743.185C993.389 741.217 992.208 740.036 990.241 740.036L983.55 740.036L983.55 734.92C983.55 733.05 985.518 731.968 987.584 731.968L990.536 731.968C992.504 732.165 993.586 731.181 993.586 729.016L993.684 722.818C993.684 720.751 992.7 719.669 990.732 719.472C987.781 719.276 983.944 719.079 983.156 719.079C972.432 719.079 967.807 723.998 967.807 735.313L967.807 740.036L965.741 740.036C963.773 740.036 962.593 741.217 962.593 743.185L962.593 751.056C962.593 753.024 963.773 754.204 965.741 754.204L967.807 754.204L967.807 786.182C967.807 788.149 968.988 789.33 970.956 789.33L980.401 789.33Z"
   id="path61" />
<path
   clip-path="url(#TextBounds)"
   d="M1019.07 790.609C1032.84 790.609 1040.91 782.344 1040.91 768.373L1040.91 760.403C1040.91 747.415 1032.16 738.757 1019.07 738.659C1005.88 738.757 997.226 747.415 997.226 760.403L997.226 768.373C997.226 782.344 1005.2 790.609 1019.07 790.609ZM1019.07 777.917C1015.43 777.917 1013.17 775.162 1013.17 770.931L1013.17 758.238C1013.17 753.614 1015.43 751.253 1019.27 751.253C1022.71 751.253 1024.97 753.712 1024.97 758.238L1024.97 770.931C1024.97 775.162 1022.71 777.917 1019.07 777.917Z"
   id="path63" />
<path
   clip-path="url(#TextBounds)"
   d="M1061.08 789.232C1063.05 789.232 1064.23 788.051 1064.23 786.083L1064.23 768.373C1064.23 762.272 1068.56 758.042 1074.86 756.959C1076.82 756.664 1077.91 755.779 1077.91 753.712L1078.01 743.283C1078.01 741.118 1076.82 739.938 1074.66 740.331C1070.33 741.02 1067.18 743.086 1064.62 745.743L1064.23 745.743L1064.23 743.185C1064.23 741.217 1063.05 740.036 1061.08 740.036L1051.64 740.036C1049.67 740.036 1048.49 741.217 1048.49 743.185L1048.49 786.083C1048.49 788.051 1049.67 789.232 1051.64 789.232L1061.08 789.232Z"
   id="path65" />
<path
   clip-path="url(#TextBounds)"
   d="M1118.84 789.232C1120.81 789.232 1121.99 788.051 1121.99 786.083L1121.99 767.389L1127.79 767.389C1143.34 767.389 1152.09 758.927 1152.09 743.873C1152.09 728.82 1143.34 720.358 1127.79 720.358L1109.39 720.358C1107.42 720.358 1106.24 721.539 1106.24 723.506L1106.24 786.083C1106.24 788.051 1107.42 789.232 1109.39 789.232L1118.84 789.232ZM1121.99 735.117L1126.91 735.117C1133.01 735.117 1136.35 737.97 1136.35 743.873C1136.35 749.777 1133.01 752.63 1126.91 752.63L1121.99 752.63L1121.99 735.117Z"
   id="path67" />
<path
   clip-path="url(#TextBounds)"
   d="M1171.08 789.232C1173.05 789.232 1174.23 788.051 1174.23 786.083L1174.23 762.174C1174.23 757.648 1176.69 754.696 1180.63 754.696C1184.27 754.696 1186.33 757.353 1186.33 761.879L1186.33 786.083C1186.33 788.051 1187.51 789.232 1189.48 789.232L1198.93 789.232C1200.9 789.232 1202.08 788.051 1202.08 786.083L1202.08 756.959C1202.08 745.841 1196.37 738.659 1187.22 738.659C1182.4 738.659 1177.68 741.61 1174.53 745.644L1174.23 745.644L1174.23 723.506C1174.23 721.539 1173.05 720.358 1171.08 720.358L1161.64 720.358C1159.67 720.358 1158.49 721.539 1158.49 723.506L1158.49 786.083C1158.49 788.051 1159.67 789.232 1161.64 789.232L1171.08 789.232Z"
   id="path69" />
<path
   clip-path="url(#TextBounds)"
   d="M1226.67 790.412C1231 790.412 1234.94 788.838 1238.09 786.28L1238.28 786.28L1238.28 786.575C1238.28 788.248 1239.56 789.232 1241.43 789.232L1250.78 789.232C1252.75 789.232 1253.93 788.051 1253.93 786.083L1253.93 743.086C1253.93 741.118 1252.75 739.938 1250.78 739.938L1241.43 739.938C1239.56 739.938 1238.28 740.823 1238.28 742.299L1238.28 742.594L1237.99 742.594C1234.94 740.036 1231 738.462 1226.67 738.462C1217.03 738.462 1209.16 746.432 1209.16 756.172L1209.16 772.8C1209.16 782.541 1217.03 790.412 1226.67 790.412ZM1231 778.015C1227.07 778.015 1223.82 774.768 1223.82 770.832L1223.82 758.534C1223.82 754.5 1227.07 751.253 1231 751.253C1235.04 751.253 1238.28 754.5 1238.28 758.534L1238.28 770.832C1238.28 774.768 1235.04 778.015 1231 778.015Z"
   id="path71" />
<path
   clip-path="url(#TextBounds)"
   d="M1276.66 789.232C1278.62 789.232 1279.81 788.051 1279.81 786.083L1279.81 768.373C1279.81 762.272 1284.13 758.042 1290.43 756.959C1292.4 756.664 1293.48 755.779 1293.48 753.712L1293.58 743.283C1293.58 741.118 1292.4 739.938 1290.23 740.331C1285.91 741.02 1282.76 743.086 1280.2 745.743L1279.81 745.743L1279.81 743.185C1279.81 741.217 1278.62 740.036 1276.66 740.036L1267.21 740.036C1265.24 740.036 1264.06 741.217 1264.06 743.185L1264.06 786.083C1264.06 788.051 1265.24 789.232 1267.21 789.232L1276.66 789.232Z"
   id="path73" />
<path
   clip-path="url(#TextBounds)"
   d="M1310.6 789.232C1312.57 789.232 1313.75 788.051 1313.75 786.083L1313.75 759.911C1313.75 754.893 1315.23 752.729 1317.78 752.729C1320.54 752.729 1322.02 754.696 1322.02 759.911L1322.02 786.083C1322.02 788.051 1323.2 789.232 1325.16 789.232L1332.64 789.232C1334.61 789.232 1335.79 788.051 1335.79 786.083L1335.79 759.911C1335.79 754.893 1337.36 752.729 1339.92 752.729C1342.58 752.729 1344.05 754.696 1344.05 759.813L1344.05 786.083C1344.05 788.051 1345.24 789.232 1347.2 789.232L1355.47 789.232C1357.44 789.232 1358.62 788.051 1358.62 786.083L1358.62 754.992C1358.62 744.759 1354.09 738.659 1346.51 738.659C1340.41 738.659 1335.99 742.201 1334.9 746.628L1334.61 746.628C1333.43 741.315 1329.98 738.659 1324.18 738.659C1318.28 738.659 1314.44 742.201 1313.46 746.628L1313.26 746.628L1313.26 743.185C1313.26 741.217 1312.08 740.036 1310.11 740.036L1302.34 740.036C1300.37 740.036 1299.19 741.217 1299.19 743.185L1299.19 786.083C1299.19 788.051 1300.37 789.232 1302.34 789.232L1310.6 789.232Z"
   id="path75" />
<path
   clip-path="url(#TextBounds)"
   d="M1383.02 790.412C1387.35 790.412 1391.28 788.838 1394.43 786.28L1394.63 786.28L1394.63 786.575C1394.63 788.248 1395.91 789.232 1397.78 789.232L1407.12 789.232C1409.09 789.232 1410.27 788.051 1410.27 786.083L1410.27 743.086C1410.27 741.118 1409.09 739.938 1407.12 739.938L1397.78 739.938C1395.91 739.938 1394.63 740.823 1394.63 742.299L1394.63 742.594L1394.33 742.594C1391.28 740.036 1387.35 738.462 1383.02 738.462C1373.38 738.462 1365.5 746.432 1365.5 756.172L1365.5 772.8C1365.5 782.541 1373.38 790.412 1383.02 790.412ZM1387.35 778.015C1383.41 778.015 1380.16 774.768 1380.16 770.832L1380.16 758.534C1380.16 754.5 1383.41 751.253 1387.35 751.253C1391.38 751.253 1394.63 754.5 1394.63 758.534L1394.63 770.832C1394.63 774.768 1391.38 778.015 1387.35 778.015Z"
   id="path77" />
<path
   clip-path="url(#TextBounds)"
   d="M1439.89 790.609C1452.29 790.609 1460.35 784.607 1461.53 772.8C1461.83 770.636 1460.55 769.455 1458.48 769.455L1448.84 769.455C1446.87 769.455 1445.89 770.537 1445.59 772.505C1445 775.949 1443.33 777.917 1439.89 777.917C1436.25 777.917 1433.98 775.162 1433.98 770.931L1433.98 758.238C1433.98 753.614 1436.25 751.253 1440.08 751.253C1443.33 751.253 1445 753.024 1445.59 756.467C1445.89 758.534 1446.87 759.616 1448.84 759.616L1458.39 759.616C1460.45 759.616 1461.73 758.435 1461.44 756.369C1460.16 745.349 1451.89 738.757 1439.89 738.659C1426.7 738.56 1418.04 747.415 1418.04 760.403L1418.04 768.373C1418.04 782.344 1426.01 790.609 1439.89 790.609Z"
   id="path79" />
<path
   clip-path="url(#TextBounds)"
   d="M1488.89 790.609C1501.19 790.609 1509.25 786.28 1510.53 776.638C1510.83 774.768 1509.55 773.784 1507.48 773.784L1497.45 773.784C1495.68 773.784 1495.18 774.768 1494 776.244C1493.02 777.523 1491.05 777.917 1489.28 777.917C1485.64 777.917 1482.98 775.752 1482.98 771.521L1482.98 768.963L1507.48 768.963C1509.45 768.963 1510.63 767.782 1510.63 765.815L1510.63 758.337C1510.53 746.136 1501.58 738.757 1488.89 738.659C1475.7 738.56 1467.04 747.415 1467.04 760.403L1467.04 768.373C1467.04 782.344 1475.01 790.609 1488.89 790.609ZM1482.98 758.337C1482.98 753.614 1485.25 751.253 1489.08 751.253C1492.53 751.253 1494.79 753.712 1494.79 758.337L1482.98 758.337Z"
   id="path81" />
<path
   clip-path="url(#TextBounds)"
   d="M1532.47 790.609C1537.1 790.609 1541.53 788.149 1544.48 784.41L1544.77 784.41L1544.77 786.083C1544.77 788.051 1545.95 789.232 1547.92 789.232L1557.37 789.232C1559.33 789.232 1560.52 788.051 1560.52 786.083L1560.52 743.185C1560.52 741.217 1559.33 740.036 1557.37 740.036L1547.92 740.036C1545.95 740.036 1544.77 741.217 1544.77 743.185L1544.77 768.078C1544.77 772.604 1542.41 775.457 1538.77 775.457C1535.43 775.457 1533.46 772.899 1533.46 768.373L1533.46 743.185C1533.46 741.217 1532.28 740.036 1530.31 740.036L1520.86 740.036C1518.9 740.036 1517.72 741.217 1517.72 743.185L1517.72 772.702C1517.72 783.427 1523.42 790.609 1532.47 790.609Z"
   id="path83" />
<path
   clip-path="url(#TextBounds)"
   d="M1598.3 790.314C1600.27 790.019 1601.25 788.74 1601.25 786.87L1601.25 779.589C1601.25 777.523 1600.07 776.539 1597.9 776.539C1593.38 776.638 1590.62 775.457 1590.62 770.931L1590.62 754.204L1598.1 754.204C1600.07 754.204 1601.25 753.024 1601.25 751.056L1601.25 743.185C1601.25 741.217 1600.07 740.036 1598.1 740.036L1590.62 740.036L1590.62 729.902C1590.62 727.934 1589.44 726.753 1587.47 726.753L1578.03 726.753C1576.06 726.753 1574.88 727.934 1574.88 729.902L1574.88 740.036L1570.16 740.036C1568.19 740.036 1567.01 741.217 1567.01 743.185L1567.01 751.056C1567.01 753.024 1568.19 754.204 1570.16 754.204L1574.49 754.204L1574.49 774.965C1574.49 781.065 1576.26 785.099 1579.6 787.657C1583.64 790.707 1590.03 791.396 1598.3 790.314Z"
   id="path85" />
<path
   clip-path="url(#TextBounds)"
   d="M1618.57 733.739C1622.8 733.739 1626.34 730.295 1626.34 726.163C1626.34 722.031 1622.8 718.39 1618.57 718.39C1614.14 718.39 1610.79 721.834 1610.79 726.163C1610.79 730.394 1614.24 733.739 1618.57 733.739ZM1623.29 789.232C1625.26 789.232 1626.44 788.051 1626.44 786.083L1626.44 743.185C1626.44 741.217 1625.26 740.036 1623.29 740.036L1613.84 740.036C1611.88 740.036 1610.69 741.217 1610.69 743.185L1610.69 786.083C1610.69 788.051 1611.88 789.232 1613.84 789.232L1623.29 789.232Z"
   id="path87" />
<path
   clip-path="url(#TextBounds)"
   d="M1655.95 790.609C1668.35 790.609 1676.42 784.607 1677.6 772.8C1677.9 770.636 1676.62 769.455 1674.55 769.455L1664.91 769.455C1662.94 769.455 1661.96 770.537 1661.66 772.505C1661.07 775.949 1659.4 777.917 1655.95 777.917C1652.31 777.917 1650.05 775.162 1650.05 770.931L1650.05 758.238C1650.05 753.614 1652.31 751.253 1656.15 751.253C1659.4 751.253 1661.07 753.024 1661.66 756.467C1661.96 758.534 1662.94 759.616 1664.91 759.616L1674.45 759.616C1676.52 759.616 1677.8 758.435 1677.5 756.369C1676.22 745.349 1667.96 738.757 1655.95 738.659C1642.77 738.56 1634.11 747.415 1634.11 760.403L1634.11 768.373C1634.11 782.344 1642.08 790.609 1655.95 790.609Z"
   id="path89" />
<path
   clip-path="url(#TextBounds)"
   d="M1700.23 790.412C1704.56 790.412 1708.5 788.838 1711.64 786.28L1711.84 786.28L1711.84 786.575C1711.84 788.248 1713.12 789.232 1714.99 789.232L1724.34 789.232C1726.3 789.232 1727.48 788.051 1727.48 786.083L1727.48 743.086C1727.48 741.118 1726.3 739.938 1724.34 739.938L1714.99 739.938C1713.12 739.938 1711.84 740.823 1711.84 742.299L1711.84 742.594L1711.55 742.594C1708.5 740.036 1704.56 738.462 1700.23 738.462C1690.59 738.462 1682.72 746.432 1682.72 756.172L1682.72 772.8C1682.72 782.541 1690.59 790.412 1700.23 790.412ZM1704.56 778.015C1700.62 778.015 1697.38 774.768 1697.38 770.832L1697.38 758.534C1697.38 754.5 1700.62 751.253 1704.56 751.253C1708.59 751.253 1711.84 754.5 1711.84 758.534L1711.84 770.832C1711.84 774.768 1708.59 778.015 1704.56 778.015Z"
   id="path91" />
<path
   clip-path="url(#TextBounds)"
   d="M1750.71 789.232C1752.67 789.232 1753.85 788.051 1753.85 786.083L1753.85 723.506C1753.85 721.539 1752.67 720.358 1750.71 720.358L1741.26 720.358C1739.29 720.358 1738.11 721.539 1738.11 723.506L1738.11 786.083C1738.11 788.051 1739.29 789.232 1741.26 789.232L1750.71 789.232Z"
   id="path93" />
<path
   clip-path="url(#TextBounds)"
   d="M1782.19 790.609C1794.78 790.609 1803.05 783.82 1803.05 773.194C1803.05 765.421 1798.92 761.19 1789.18 758.927L1781.9 757.255C1779.04 756.566 1778.16 755.779 1778.16 754.008C1778.16 752.04 1779.44 750.957 1781.99 750.957C1783.76 750.957 1785.04 751.548 1785.83 752.63C1786.91 754.204 1787.41 755.188 1789.18 755.188L1798.42 755.188C1800.49 755.188 1801.77 754.008 1801.47 751.941C1800.39 743.48 1793.41 738.659 1782.09 738.659C1769.79 738.659 1762.22 744.956 1762.22 755.385C1762.22 763.453 1766.74 768.471 1775.79 770.636L1782.39 772.21C1785.73 772.997 1786.52 773.489 1786.52 775.26C1786.52 777.228 1785.04 778.31 1782.29 778.31C1780.12 778.31 1778.75 777.818 1777.96 776.736C1776.88 775.162 1776.29 774.178 1774.52 774.178L1764.78 774.178C1762.71 774.178 1761.33 775.358 1761.72 777.523C1763.4 785.886 1770.68 790.609 1782.19 790.609Z"
   id="path95" />
</g>
</g>
</svg>
